<mxfile host="app.diagrams.net" modified="2024-04-09T09:05:03.594Z" agent="Mozilla/5.0 (Windows NT 10.0; Win64; x64) AppleWebKit/537.36 (KHTML, like Gecko) Chrome/123.0.0.0 Safari/537.36" etag="BWozTW6mPz0hkwMo_Abq" version="24.2.3" type="device">
  <diagram name="1 oldal" id="yTtiCl8wU1QipExr6Qv_">
    <mxGraphModel dx="2234" dy="738" grid="1" gridSize="10" guides="1" tooltips="1" connect="1" arrows="1" fold="1" page="0" pageScale="1" pageWidth="1169" pageHeight="827" math="0" shadow="0">
      <root>
        <mxCell id="0" />
        <mxCell id="1" parent="0" />
        <mxCell id="I_JEJb52zLFdTlIO5UJ--1" value="" style="ellipse;whiteSpace=wrap;html=1;fillColor=#dae8fc;labelBackgroundColor=#FF5E5E;fillStyle=auto;strokeColor=#6c8ebf;opacity=50;" parent="1" vertex="1">
          <mxGeometry x="-800" y="222" width="200" height="200" as="geometry" />
        </mxCell>
        <mxCell id="I_JEJb52zLFdTlIO5UJ--2" value="" style="ellipse;whiteSpace=wrap;html=1;fillStyle=auto;fillColor=#f8cecc;opacity=40;strokeColor=#b85450;" parent="1" vertex="1">
          <mxGeometry x="-700" y="222" width="200" height="200" as="geometry" />
        </mxCell>
        <mxCell id="I_JEJb52zLFdTlIO5UJ--3" value="Code that runs&lt;br&gt;on NodeJS" style="text;html=1;align=center;verticalAlign=middle;resizable=0;points=[];autosize=1;strokeColor=none;fillColor=none;" parent="1" vertex="1">
          <mxGeometry x="-800" y="302" width="100" height="40" as="geometry" />
        </mxCell>
        <mxCell id="I_JEJb52zLFdTlIO5UJ--4" value="Code that runs&lt;br&gt;on edge" style="text;html=1;align=center;verticalAlign=middle;resizable=0;points=[];autosize=1;strokeColor=none;fillColor=none;" parent="1" vertex="1">
          <mxGeometry x="-600" y="302" width="100" height="40" as="geometry" />
        </mxCell>
        <mxCell id="I_JEJb52zLFdTlIO5UJ--5" value="JS&lt;br style=&quot;font-size: 14px;&quot;&gt;backend&lt;br style=&quot;font-size: 14px;&quot;&gt;on steroids" style="text;html=1;align=center;verticalAlign=middle;resizable=0;points=[];autosize=1;strokeColor=none;fillColor=none;rounded=0;fontStyle=1;fontSize=14;" parent="1" vertex="1">
          <mxGeometry x="-700" y="292" width="100" height="60" as="geometry" />
        </mxCell>
        <mxCell id="limH3VUpxIUlE46dgqZ7-1" value="" style="curved=1;endArrow=classic;html=1;rounded=0;exitX=0.5;exitY=1;exitDx=0;exitDy=0;entryX=0.5;entryY=1;entryDx=0;entryDy=0;" edge="1" parent="1" source="I_JEJb52zLFdTlIO5UJ--1" target="I_JEJb52zLFdTlIO5UJ--2">
          <mxGeometry width="50" height="50" relative="1" as="geometry">
            <mxPoint x="-630" y="540" as="sourcePoint" />
            <mxPoint x="-580" y="490" as="targetPoint" />
            <Array as="points">
              <mxPoint x="-650" y="480" />
            </Array>
          </mxGeometry>
        </mxCell>
        <mxCell id="limH3VUpxIUlE46dgqZ7-2" value="" style="curved=1;endArrow=classic;html=1;rounded=0;entryX=0.5;entryY=0;entryDx=0;entryDy=0;exitX=0.5;exitY=0;exitDx=0;exitDy=0;" edge="1" parent="1" source="I_JEJb52zLFdTlIO5UJ--2" target="I_JEJb52zLFdTlIO5UJ--1">
          <mxGeometry width="50" height="50" relative="1" as="geometry">
            <mxPoint x="-600" y="220" as="sourcePoint" />
            <mxPoint x="-710" y="220" as="targetPoint" />
            <Array as="points">
              <mxPoint x="-650" y="160" />
            </Array>
          </mxGeometry>
        </mxCell>
        <mxCell id="limH3VUpxIUlE46dgqZ7-3" value="hard" style="text;html=1;align=center;verticalAlign=middle;resizable=0;points=[];autosize=1;strokeColor=none;fillColor=none;" vertex="1" parent="1">
          <mxGeometry x="-675" y="450" width="50" height="30" as="geometry" />
        </mxCell>
        <mxCell id="limH3VUpxIUlE46dgqZ7-5" value="easy" style="text;html=1;align=center;verticalAlign=middle;resizable=0;points=[];autosize=1;strokeColor=none;fillColor=none;" vertex="1" parent="1">
          <mxGeometry x="-675" y="160" width="50" height="30" as="geometry" />
        </mxCell>
      </root>
    </mxGraphModel>
  </diagram>
</mxfile>
